<?xml version="1.0" encoding="UTF-8"?>
<svg width="14px" height="20px" viewBox="0 0 14 20" version="1.1" xmlns="http://www.w3.org/2000/svg" xmlns:xlink="http://www.w3.org/1999/xlink">
    <!-- Generator: Sketch 45 (43475) - http://www.bohemiancoding.com/sketch -->
    <title>Combined Shape</title>
    <desc>Created with Sketch.</desc>
    <defs></defs>
    <g id="Page-1" stroke="none" stroke-width="1" fill="none" fill-rule="evenodd">
        <g id="iPhone" transform="translate(-96.000000, -42.000000)" fill-rule="nonzero" fill="#F7F8FC">
            <path d="M98.1750952,42 C99.3770527,42 100.35019,42.9735726 100.35019,44.1750952 L100.35019,59.8249048 C100.35019,61.0264274 99.3766177,62 98.1750952,62 C96.9735726,62 96,61.0268624 96,59.8249048 L96,44.1750952 C96,42.9740076 96.9735726,42 98.1750952,42 Z M107.005438,42 C108.20696,42 109.180533,42.9740076 109.180533,44.1750952 L109.180533,59.8249048 C109.180533,61.0264274 108.20696,62 107.005438,62 C105.803915,62 104.830343,61.0264274 104.830343,59.8249048 L104.830343,44.1750952 C104.830343,42.9740076 105.803915,42 107.005438,42 Z" id="Combined-Shape"></path>
        </g>
    </g>
</svg>